HIERARCHY
ROOT Pelvis
{
	OFFSET 0.000000 0.000000 0.000000
	CHANNELS 6 Xposition Yposition Zposition Xrotation Yrotation Zrotation
	JOINT LeftUpLeg_virtual
	{
		OFFSET 0.000000 0.000000 0.000000
		CHANNELS 3 Xrotation Yrotation Zrotation
		JOINT LeftUpLeg
		{
			OFFSET 18.735201 -5.666702 -4.541200
			CHANNELS 3 Xrotation Yrotation Zrotation
			JOINT LeftLeg
			{
				OFFSET -0.021200 -31.938179 0.493100
				CHANNELS 3 Xrotation Yrotation Zrotation
				JOINT LeftFoot
				{
					OFFSET 0.021200 -31.938179 -4.336299
					CHANNELS 3 Xrotation Yrotation Zrotation
					JOINT LeftToeBase
					{
						OFFSET 0.943001 -26.722000 15.023500
						CHANNELS 3 Xrotation Yrotation Zrotation
						End Site
						{
							OFFSET 0 0 0
						}
					}
				}
			}
		}
	}
	JOINT RightUpLeg_virtual
	{
		OFFSET 0.000000 0.000000 0.000000
		CHANNELS 3 Xrotation Yrotation Zrotation
		JOINT RightUpLeg
		{
			OFFSET -18.735201 -5.666702 -4.541200
			CHANNELS 3 Xrotation Yrotation Zrotation
			JOINT RightLeg
			{
				OFFSET 0.018946 -31.938133 0.493100
				CHANNELS 3 Xrotation Yrotation Zrotation
				JOINT RightFoot
				{
					OFFSET -0.018946 -31.938126 -4.336299
					CHANNELS 3 Xrotation Yrotation Zrotation
					JOINT RightToeBase
					{
						OFFSET -0.943001 -26.722004 15.023500
						CHANNELS 3 Xrotation Yrotation Zrotation
						End Site
						{
							OFFSET 0 0 0
						}
					}
				}
			}
		}
	}
	JOINT Hips_virtual
	{
		OFFSET 0.000000 0.000000 0.000000
		CHANNELS 3 Xrotation Yrotation Zrotation
		JOINT Hips
		{
			OFFSET -0.000000 -0.000000 -0.000000
			CHANNELS 3 Xrotation Yrotation Zrotation
			JOINT Spine
			{
				OFFSET 0.000000 10.199997 -0.299500
				CHANNELS 3 Xrotation Yrotation Zrotation
				JOINT Spine1
				{
					OFFSET 0.000000 11.900002 -1.516600
					CHANNELS 3 Xrotation Yrotation Zrotation
					JOINT Spine2
					{
						OFFSET 0.000000 13.600006 -2.842500
						CHANNELS 3 Xrotation Yrotation Zrotation
						JOINT Neck_virtual
						{
							OFFSET 0.000000 0.000000 0.000000
							CHANNELS 3 Xrotation Yrotation Zrotation
							JOINT Neck
							{
								OFFSET 0.000000 9.624100 -2.890100
								CHANNELS 3 Xrotation Yrotation Zrotation
								JOINT Head
								{
									OFFSET 0.000000 14.068802 -1.351900
									CHANNELS 3 Xrotation Yrotation Zrotation
									End Site
									{
										OFFSET 0 0 0
									}
								}
							}
						}
						JOINT LeftShoulder_virtual
						{
							OFFSET 0.000000 0.000000 0.000000
							CHANNELS 3 Xrotation Yrotation Zrotation
							JOINT LeftShoulder
							{
								OFFSET 15.263000 10.923401 -0.547700
								CHANNELS 3 Xrotation Yrotation Zrotation
								JOINT LeftArm
								{
									OFFSET 25.438599 -2.830597 -13.032500
									CHANNELS 3 Xrotation Yrotation Zrotation
									JOINT LeftForeArm
									{
										OFFSET 29.960503 0.000000 0.000000
										CHANNELS 3 Xrotation Yrotation Zrotation
										JOINT LeftHand
										{
											OFFSET 27.849251 0.000000 0.000000
											CHANNELS 3 Xrotation Yrotation Zrotation
											End Site
											{
												OFFSET 0 0 0
											}
										}
									}
								}
							}
						}
						JOINT RightShoulder_virtual
						{
							OFFSET 0.000000 0.000000 0.000000
							CHANNELS 3 Xrotation Yrotation Zrotation
							JOINT RightShoulder
							{
								OFFSET -15.263000 10.923401 -0.547700
								CHANNELS 3 Xrotation Yrotation Zrotation
								JOINT RightArm
								{
									OFFSET -25.438599 -2.830597 -13.032500
									CHANNELS 3 Xrotation Yrotation Zrotation
									JOINT RightForeArm
									{
										OFFSET -29.960503 0.000000 0.000000
										CHANNELS 3 Xrotation Yrotation Zrotation
										JOINT RightHand
										{
											OFFSET -27.849251 0.000000 0.000000
											CHANNELS 3 Xrotation Yrotation Zrotation
											End Site
											{
												OFFSET 0 0 0
											}
										}
									}
								}
							}
						}
					}
				}
			}
		}
	}
}
MOTION
Frames: 7
Frame Time: 0.03333333
0.878099 78.433945 17.431446 0.000000 0.000000 0.000000 0.276800 -29.959580 -1.975941 -52.414602 -4.572803 23.706142 73.205804 -1.262856 0.065065 -20.312412 -6.834241 -14.935431 0.000000 0.000000 0.000000 0.276800 -29.959580 -1.975941 -11.733789 -14.463571 -32.409493 52.882504 -5.284000 -7.461998 -15.314689 -10.449361 26.151891 0.000000 0.000000 0.000000 0.276800 -29.959580 -1.975941 0.000000 0.000000 0.000000 12.062035 8.976083 -5.955424 2.723682 1.552889 -1.611382 0.000000 0.000000 0.000000 2.746779 1.530460 -1.591251 0.075640 1.885360 0.202726 0.000000 0.000000 0.000000 2.746779 1.530460 -1.591251 0.920476 1.300391 -6.093184 -59.606392 1.454201 -47.058818 -179.999814 -70.850187 -179.999827 0.000000 0.000000 0.000000 2.746779 1.530460 -1.591251 2.590443 21.406221 -4.318640 -39.313469 17.241004 46.560399 179.999991 66.687522 -179.999991 0.000000 0.000000 0.000000 
0.743066 78.082893 15.440636 0.000000 0.000000 0.000000 -0.887742 -33.296848 -1.790306 -50.965806 -4.273447 25.624908 72.901737 -0.460329 -0.878390 -19.588868 -6.474573 -15.671068 0.000000 0.000000 0.000000 -0.887742 -33.296848 -1.790306 -11.523810 -14.071142 -32.626560 54.723079 -5.205890 -6.730992 -18.956505 -15.401284 28.255796 0.000000 0.000000 0.000000 -0.887742 -33.296848 -1.790306 0.000000 0.000003 0.000000 12.094119 8.530625 -5.520124 2.734735 1.427240 -1.530577 0.000000 0.000000 0.000000 2.757619 1.406167 -1.509497 0.230015 2.133438 0.042931 0.000000 0.000000 0.000000 2.757619 1.406167 -1.509497 0.848222 1.234092 -5.801385 -60.427373 2.491306 -46.713067 -179.999732 -71.598988 -179.999718 0.000000 0.000000 0.000000 2.757619 1.406167 -1.509497 2.551280 20.915496 -4.132410 -41.238353 18.236702 50.341441 -179.999909 67.992266 179.999937 0.000000 0.000000 0.000000 
0.544929 77.808517 13.340866 0.000000 0.000000 0.000000 -1.787324 -35.859569 -1.388147 -49.959828 -3.836815 27.077172 71.943728 0.194296 -1.635622 -18.143028 -6.368903 -16.109891 0.000000 0.000000 0.000000 -1.787324 -35.859569 -1.388147 -11.715293 -13.687834 -32.422672 56.056244 -5.634069 -6.666666 -23.649670 -18.042102 28.846853 0.000000 0.000000 0.000000 -1.787324 -35.859569 -1.388147 0.000000 0.000002 0.000000 12.058746 8.030562 -5.109942 2.726338 1.293487 -1.468238 0.000000 0.000000 0.000000 2.748195 1.274538 -1.446135 0.452090 2.337299 -0.106116 0.000000 0.000000 0.000000 2.748195 1.274538 -1.446135 0.723370 1.519085 -5.655420 -60.780173 3.446322 -46.778422 -179.999677 -72.457830 -179.999718 0.000000 0.000000 0.000000 2.748195 1.274538 -1.446135 2.511054 20.376135 -3.971664 -43.426995 19.111102 54.090601 -179.999827 69.116037 179.999841 0.000000 0.000000 0.000000 
0.228915 77.680931 11.149857 0.000000 0.000000 0.000000 -2.532442 -37.546813 -1.087729 -49.328224 -3.534942 28.223170 70.343784 0.737997 -2.132286 -15.988725 -6.505410 -16.297350 0.000000 0.000000 0.000000 -2.532442 -37.546813 -1.087729 -13.364039 -12.986245 -33.447033 58.112814 -6.014340 -6.196307 -27.293933 -16.498196 28.749356 0.000000 0.000000 0.000000 -2.532442 -37.546813 -1.087729 0.000000 0.000001 0.000000 12.038414 7.438046 -4.332625 2.728192 1.133295 -1.333676 0.000000 0.000000 0.000000 2.749305 1.117038 -1.311336 0.717504 2.517310 -0.316510 0.000000 0.000000 0.000000 2.749305 1.117038 -1.311336 0.720751 1.794968 -5.890578 -60.570131 4.436038 -47.102211 -179.999131 -72.916641 -179.999131 0.000000 0.000000 0.000000 2.749305 1.117038 -1.311336 2.524405 19.980620 -4.230784 -45.510674 19.661224 57.563277 -179.999978 69.969585 179.999950 0.000000 0.000000 0.000000 
-0.067278 77.754402 9.099319 0.000000 0.000000 0.000000 -3.243109 -38.025989 -1.233133 -49.234261 -3.651531 29.153621 68.294720 1.165742 -2.337635 -12.701824 -6.959459 -16.561365 0.000000 0.000000 0.000000 -3.243109 -38.025989 -1.233133 -14.523598 -12.918591 -34.198631 59.526929 -6.514234 -5.557252 -29.167886 -14.321843 29.065744 0.000000 0.000000 0.000000 -3.243109 -38.025989 -1.233133 0.000000 0.000002 0.000000 12.097488 6.722280 -2.807264 2.762019 0.931088 -1.042182 0.000000 0.000000 0.000000 2.782706 0.919989 -1.020691 0.988530 2.657570 -0.641554 0.000000 0.000000 0.000000 2.782706 0.919989 -1.020691 0.887036 1.821080 -6.441182 -59.658178 5.673433 -47.725172 -179.999896 -72.907939 -179.999882 0.000000 0.000000 0.000000 2.782706 0.919989 -1.020691 2.555749 19.402993 -5.121958 -47.064405 20.020562 60.797781 179.999909 70.550438 -179.999909 0.000000 0.000000 0.000000 
-0.365794 77.968582 7.229424 0.000000 0.000000 0.000000 -3.717561 -37.695476 -1.306121 -49.639988 -3.990474 29.644510 65.577678 1.254664 -2.319849 -7.950419 -7.718987 -16.926747 0.000000 0.000000 0.000000 -3.717561 -37.695476 -1.306121 -14.909033 -13.067608 -34.422798 60.358122 -6.786278 -4.794901 -30.063245 -13.250570 29.560331 0.000000 0.000000 0.000000 -3.717561 -37.695476 -1.306121 0.000000 -0.000001 0.000000 12.004922 6.145703 -1.199827 2.757951 0.759648 -0.733175 0.000000 0.000000 0.000000 2.778167 0.754784 -0.712768 1.302004 2.744682 -0.927222 0.000000 0.000000 0.000000 2.778167 0.754784 -0.712768 1.131832 1.689431 -7.109514 -58.423683 6.433933 -48.646195 -180.000005 -73.053695 180.000005 0.000000 0.000000 0.000000 2.778167 0.754784 -0.712768 2.548407 18.665606 -5.977052 -47.962531 20.529532 63.341576 -179.999623 71.123627 179.999636 0.000000 0.000000 0.000000 
-0.748544 78.241417 5.454441 0.000000 0.000000 0.000000 -3.759652 -37.614808 -0.696755 -50.735212 -4.194959 29.433198 63.253043 1.251897 -2.146185 -2.422145 -8.790738 -16.398316 0.000000 0.000000 0.000000 -3.759652 -37.614808 -0.696755 -15.698261 -12.693257 -34.737212 61.284132 -6.501788 -4.259424 -30.846026 -12.957228 29.923349 0.000000 0.000000 0.000000 -3.759652 -37.614808 -0.696755 0.000000 -0.000004 0.000000 11.625920 6.015667 -0.470200 2.672644 0.709726 -0.605412 0.000000 0.000000 0.000000 2.692396 0.707503 -0.585586 1.633502 2.801601 -1.032591 0.000000 0.000000 0.000000 2.692396 0.707503 -0.585586 1.245588 1.868604 -7.630062 -57.238266 6.130699 -49.787086 179.999732 -73.687182 179.999718 0.000000 0.000000 0.000000 2.692396 0.707503 -0.585586 2.536899 18.208801 -6.200681 -48.492666 21.272774 64.876265 -179.999950 71.700020 179.999937 0.000000 0.000000 0.000000 
